<svg width="791" height="618" viewBox="0 0 791 618" fill="none" xmlns="http://www.w3.org/2000/svg">
<path d="M215.733 131.278C221.928 101.35 196.876 73.0366 159.779 68.039C122.681 63.0415 87.5857 83.2518 81.391 113.18C75.1964 143.108 100.248 171.421 137.346 176.419C174.443 181.417 209.539 161.206 215.733 131.278Z" fill="#C7C7C7"/>
<path d="M151.672 175.856C187.561 175.856 216.655 152.385 216.655 123.432C216.655 94.4782 187.561 71.0068 151.672 71.0068C115.783 71.0068 86.689 94.4782 86.689 123.432C86.689 152.385 115.783 175.856 151.672 175.856Z" fill="#A6A6A6"/>
<path d="M151.672 172.554C185.3 172.554 212.561 150.561 212.561 123.431C212.561 96.3021 185.3 74.3093 151.672 74.3093C118.044 74.3093 90.7827 96.3021 90.7827 123.431C90.7827 150.561 118.044 172.554 151.672 172.554Z" fill="white"/>
<path d="M152.246 77.8898H151.079V85.3283H152.246V77.8898Z" fill="#DBDBDB"/>
<path d="M123.968 83.7378L122.941 84.2162L127.551 90.6582L128.578 90.1798L123.968 83.7378Z" fill="#DBDBDB"/>
<path d="M103.045 100.253L102.462 101.068L110.447 104.787L111.03 103.972L103.045 100.253Z" fill="#DBDBDB"/>
<path d="M104.422 122.953H95.2015V123.91H104.422V122.953Z" fill="#DBDBDB"/>
<path d="M110.479 142.064L102.494 145.784L103.078 146.599L111.062 142.879L110.479 142.064Z" fill="#DBDBDB"/>
<path d="M127.541 156.217L122.935 162.661L123.962 163.139L128.568 156.695L127.541 156.217Z" fill="#DBDBDB"/>
<path d="M152.246 161.535H151.079V168.973H152.246V161.535Z" fill="#DBDBDB"/>
<path d="M175.788 156.181L174.761 156.659L179.371 163.101L180.398 162.623L175.788 156.181Z" fill="#DBDBDB"/>
<path d="M192.847 142.06L192.264 142.875L200.249 146.595L200.833 145.779L192.847 142.06Z" fill="#DBDBDB"/>
<path d="M208.123 122.953H198.903V123.91H208.123V122.953Z" fill="#DBDBDB"/>
<path d="M200.254 100.266L192.269 103.985L192.852 104.8L200.838 101.081L200.254 100.266Z" fill="#DBDBDB"/>
<path d="M179.383 83.7624L174.777 90.2063L175.804 90.6843L180.41 84.2403L179.383 83.7624Z" fill="#DBDBDB"/>
<path d="M160.879 107.782L134.158 150.145L135.198 150.572L161.919 108.209L160.879 107.782Z" fill="#DBDBDB"/>
<path d="M148.312 106.61L146.774 106.858L158.163 152.755L159.701 152.507L148.312 106.61Z" fill="#263238"/>
<path d="M476.491 345.616V557.521H635.266V345.616H476.491ZM620.824 479.278H490.896V424.137H620.824V479.278ZM620.824 411.004H490.896V355.863H620.824V411.004Z" fill="#EBEBEB"/>
<path d="M698.7 345.616H635.229V557.444H698.7V345.616Z" fill="#DBDBDB"/>
<path d="M521.79 355.848H490.915V410.988H521.79V355.848Z" fill="#DBDBDB"/>
<path d="M621.78 544.929H490.762V490.822H621.78V544.929ZM492.675 543.385H619.867V492.365H492.675V543.385Z" fill="#DBDBDB"/>
<path d="M563.665 506.378H538.031V516.841H563.665V506.378Z" fill="#DBDBDB"/>
<path d="M572.215 516.826H544.65V506.393H572.215V516.826ZM546.563 515.282H570.302V507.936H546.563V515.282Z" fill="#DBDBDB"/>
<path d="M521.79 424.137H490.915V479.278H521.79V424.137Z" fill="#DBDBDB"/>
<path d="M72.2843 557.197L157.296 556.827L242.288 556.688L412.312 556.441L582.316 556.688L667.327 556.827L752.339 557.197L667.327 557.583L582.316 557.722L412.312 557.969L242.288 557.722L157.296 557.583L72.2843 557.197Z" fill="#263238"/>
<path d="M284.986 617.94C434.934 617.94 556.491 606.809 556.491 593.078C556.491 579.347 434.934 568.216 284.986 568.216C135.037 568.216 13.4801 579.347 13.4801 593.078C13.4801 606.809 135.037 617.94 284.986 617.94Z" fill="#EBEBEB"/>
<path d="M655.371 607.369C730.277 607.369 791 600.971 791 593.078C791 585.186 730.277 578.788 655.371 578.788C580.466 578.788 519.743 585.186 519.743 593.078C519.743 600.971 580.466 607.369 655.371 607.369Z" fill="#EBEBEB"/>
<path d="M79.7257 591.983L393.45 593.078C469.7 544.759 477.62 473.182 423.177 429.801C390.255 403.565 348.438 408.859 308.63 404.676H308.515C294.646 403.226 281.045 400.618 268.132 395.124C227.138 377.669 204.029 336.479 169.539 301.895C165.235 297.558 160.739 293.33 156.033 289.271C127.664 264.841 71.213 264.039 41.6962 298.392C-33.2916 385.648 1.08418 515.545 79.7257 591.983Z" fill="#DBDBDB"/>
<path d="M72.7625 392.299C80.9882 496.146 229.625 534.913 322.499 503.8C403.225 476.747 376.807 415.016 308.668 404.676H308.515C294.646 403.226 281.045 400.618 268.132 395.124C227.138 377.669 204.029 336.479 169.539 301.895C118.195 280.351 66.7367 316.263 72.7625 392.299Z" fill="#C7C7C7"/>
<path d="M333.517 584.976C329.175 583.695 231.059 520.422 229.204 516.1C228.477 514.465 239.075 502.396 252.389 488.105C255.258 485.019 258.242 481.932 261.303 478.645C281.14 457.796 302.776 436.051 302.776 436.051L368.562 478.229L325.291 519.65L315.727 528.755C315.727 528.755 339.868 566.534 341.265 571.442C342.661 576.349 337.86 586.257 333.517 584.976Z" fill="#AD6359"/>
<path d="M333.517 584.976C329.175 583.695 231.059 520.421 229.204 516.1C228.343 514.11 244.144 496.701 261.303 478.645L325.291 519.65L315.727 528.755C315.727 528.755 339.868 566.534 341.265 571.442C342.661 576.349 337.86 586.257 333.517 584.976Z" fill="white"/>
<path d="M333.517 584.976C329.175 583.695 231.059 520.421 229.204 516.1C228.477 514.464 239.075 502.396 252.389 488.105L315.784 528.755C315.784 528.755 339.925 566.534 341.322 571.442C342.718 576.349 337.86 586.257 333.517 584.976Z" fill="#2DA0B9"/>
<path d="M335.296 580.902C319.17 569.976 252.848 527.104 235.823 517.289C235.67 517.211 235.612 517.289 235.823 517.381C251.509 528.493 318.271 570.917 335.105 581.118C335.392 581.334 335.583 581.133 335.296 580.902Z" fill="#263238"/>
<path d="M337.84 564.528C336.049 563.312 333.965 562.41 331.719 561.879C329.473 561.348 327.115 561.199 324.794 561.441C320.606 561.839 316.772 563.532 314.101 566.164C314.101 566.241 314.196 566.364 314.292 566.287C317.457 564.025 321.447 562.652 325.661 562.374C329.876 562.095 334.089 562.927 337.668 564.744C337.704 564.762 337.747 564.769 337.788 564.762C337.829 564.754 337.865 564.734 337.888 564.705C337.911 564.677 337.919 564.642 337.91 564.609C337.901 564.575 337.876 564.546 337.84 564.528Z" fill="#263238"/>
<path d="M320.872 534.187C314.349 529.866 304.861 526.826 296.463 528.523C296.138 528.601 296.272 528.971 296.463 529.017C304.633 530.293 312.611 532.269 320.26 534.913C320.38 534.978 320.526 535.003 320.668 534.981C320.81 534.959 320.935 534.893 321.016 534.797C321.097 534.701 321.128 534.582 321.101 534.468C321.074 534.354 320.992 534.253 320.872 534.187Z" fill="#263238"/>
<path d="M324.354 539.002C317.85 534.681 308.362 531.641 299.964 533.339C299.639 533.416 299.773 533.786 299.964 533.832C308.156 535.127 316.153 537.124 323.818 539.789C323.948 539.847 324.1 539.86 324.242 539.827C324.383 539.794 324.503 539.716 324.574 539.612C324.645 539.508 324.662 539.385 324.62 539.27C324.579 539.156 324.483 539.06 324.354 539.002Z" fill="#263238"/>
<path d="M327.855 543.941C321.351 539.62 311.862 536.579 303.464 538.277C303.139 538.277 303.254 538.725 303.464 538.755C311.627 540.044 319.597 542.025 327.242 544.666C327.362 544.732 327.508 544.756 327.65 544.735C327.792 544.713 327.917 544.647 327.998 544.55C328.079 544.454 328.11 544.336 328.083 544.222C328.056 544.107 327.974 544.006 327.855 543.941Z" fill="#263238"/>
<path d="M331.355 548.818C324.851 544.496 315.363 541.456 306.965 543.154C306.64 543.154 306.755 543.586 306.965 543.632C315.13 544.913 323.101 546.895 330.743 549.543C330.862 549.608 331.009 549.633 331.151 549.611C331.292 549.59 331.418 549.523 331.499 549.427C331.58 549.331 331.61 549.213 331.584 549.098C331.557 548.984 331.475 548.883 331.355 548.818Z" fill="#263238"/>
<path d="M252.504 507.381C245.1 502.643 235.957 511.918 243.36 516.641C250.763 521.363 259.926 512.134 252.504 507.381Z" fill="#263238"/>
<path d="M342.011 524.604C340.901 520.221 334.531 519.696 330.189 520.684C322.766 522.495 316.064 525.848 310.753 530.406C310.725 530.424 310.703 530.446 310.687 530.471C310.672 530.497 310.664 530.525 310.664 530.553C310.664 530.581 310.672 530.609 310.687 530.635C310.703 530.66 310.725 530.682 310.753 530.7C310.678 530.816 310.638 530.946 310.638 531.077C310.638 531.208 310.678 531.338 310.753 531.454C310.828 531.571 310.936 531.671 311.07 531.747C311.203 531.822 311.357 531.871 311.518 531.888C318.787 532.289 326.516 533.431 333.727 532.042C337.993 531.286 343.082 528.74 342.011 524.604ZM322.766 530.684C319.17 530.561 315.612 530.283 312.035 530.252C315.86 528.369 319.495 526.363 323.512 524.773C325.438 523.995 327.426 523.319 329.462 522.752C332.637 521.918 343.503 521.641 338.433 527.845C335.66 531.286 327.032 530.838 322.766 530.684Z" fill="#263238"/>
<path d="M292.446 521.841C297.477 526.24 304.689 528.74 311.021 531.656C311.167 531.714 311.328 531.743 311.491 531.739C311.654 531.736 311.814 531.701 311.957 531.638C312.099 531.574 312.221 531.484 312.311 531.374C312.401 531.264 312.457 531.139 312.474 531.008C312.608 531.008 312.742 531.008 312.723 530.808C311.453 524.631 308.187 518.834 303.254 514.001C300.327 511.224 294.684 508.816 290.724 511.949C286.764 515.082 289.5 519.264 292.446 521.841ZM291.47 516.255C291.47 508.816 300.365 513.924 302.431 516.023C303.736 517.41 304.919 518.87 305.97 520.391C308.228 523.477 309.911 526.826 311.709 530.098C308.706 528.554 305.569 527.135 302.489 525.638C298.95 523.847 291.432 520.344 291.47 516.255Z" fill="#263238"/>
<path d="M435.018 397.145C434.904 405.078 425.071 419.553 411.604 435.727C385.702 466.885 346.276 504.31 336.54 513.446L334.321 515.514L264.651 472.302L265.454 471.469L326.803 406.652L143.771 405.788L213.269 362.19C213.269 362.19 218.912 364.814 230.619 363.425C271.021 358.656 362.097 348.1 383.56 348.795C411.259 349.752 435.439 371.62 435.018 397.145Z" fill="#455A64"/>
<path d="M411.604 435.742C385.703 466.901 346.277 504.325 336.54 513.461L265.454 471.5L326.803 406.683L411.604 435.742Z" fill="#263238"/>
<path d="M348.84 382.592C346.561 384.664 344.446 386.849 342.508 389.136L335.985 395.988V396.065C336.367 395.386 336.75 394.707 337.152 394.043C338.51 391.759 339.6 389.413 341.226 387.222C341.322 387.083 341.073 386.96 340.978 387.099C339.313 389.259 337.381 391.327 335.966 393.611C335.296 394.676 334.665 395.772 334.053 396.867C333.727 397.469 333.383 398.087 333.096 398.688C332.962 398.982 332.809 399.275 332.694 399.584C331.738 400.648 330.781 401.713 329.844 402.809C327.778 405.217 326.018 407.763 323.857 410.17C323.742 410.294 324.01 410.417 324.124 410.294C326.229 408.041 328.601 405.942 330.762 403.704C332.924 401.466 335.028 399.074 337.075 396.729C339.122 394.383 341.035 392.099 343.044 389.815C345.23 387.544 347.242 385.168 349.069 382.7C349.087 382.676 349.092 382.646 349.083 382.619C349.074 382.591 349.052 382.568 349.022 382.554C348.991 382.539 348.955 382.535 348.921 382.543C348.887 382.55 348.858 382.568 348.84 382.592Z" fill="#263238"/>
<path d="M168.869 300.444C181.839 313.33 228.936 350.168 258.338 355.57C274.541 358.548 352.838 367.391 363.55 359.505C376.138 350.245 370.303 315.506 360.298 315.182C329.806 314.21 273.374 319.025 259.275 316.525C252.886 315.383 219.103 297.79 182.987 283.731C169.443 278.406 160.127 291.678 168.869 300.444Z" fill="#AD6359"/>
<path d="M348.285 312.142C348.285 312.142 348.113 313.485 347.826 315.769C347.826 316.139 347.826 316.541 347.692 316.957C347.52 318.269 347.329 319.812 347.118 321.51C347.118 321.711 347.118 321.911 347.118 322.112C346.952 323.532 346.761 325.044 346.544 326.649C346.544 327.035 346.43 327.436 346.391 327.837C346.2 329.303 345.99 330.831 345.798 332.39C345.798 332.591 345.798 332.791 345.798 332.992C345.588 334.535 345.397 336.078 345.186 337.622C345.186 338.007 345.071 338.409 345.033 338.794C344.823 340.338 344.612 341.881 344.402 343.347C344.402 343.548 344.402 343.748 344.306 343.949C344.096 345.492 343.885 347.036 343.675 348.502L343.503 349.675C343.35 350.647 343.216 351.604 343.082 352.53C342.986 353.101 342.891 353.672 342.814 354.227C342.814 354.428 342.814 354.628 342.814 354.829C342.674 355.693 342.54 356.527 342.412 357.329C342.298 358.039 342.183 358.733 342.087 359.382C342.087 359.783 341.934 360.184 341.858 360.555C341.475 362.669 341.15 364.258 340.863 365.184C340.816 365.394 340.733 365.596 340.614 365.786C340.614 365.786 340.519 365.879 340.48 365.879L339.505 365.786L336.788 365.555L335.315 365.431L332.178 365.184L329.691 364.984H328.926L323.302 364.521L321.829 364.397L316.205 363.934H315.44L309.816 363.456L308.343 363.332L302.719 362.839H301.953L296.329 362.345L294.856 362.206L289.232 361.681H288.467L282.843 361.141L281.37 361.002L280.165 360.879L275.746 360.431L274.981 360.354L269.357 359.752H268.993L267.884 359.629L262.26 358.98L261.494 358.888C259.467 358.641 257.592 358.394 255.87 358.147L254.397 357.931C252.178 357.607 250.265 357.298 248.773 356.99L248.008 356.835L247.606 356.743C246.039 356.356 244.527 355.838 243.092 355.199L242.384 354.906L241.695 354.598L240.911 354.243C239.17 353.409 237.296 352.437 235.287 351.31C235.038 351.187 234.79 351.033 234.522 350.878L233.068 350.045L231.059 348.872L228.898 347.56L227.425 346.65L223.79 344.319L222.853 343.717L221.801 343.023L221.036 342.514L220.022 341.85C218.721 340.97 217.382 340.091 216.062 339.165C215.836 339.025 215.619 338.875 215.411 338.717L214.34 337.992L213.938 337.714C212.025 336.418 210.113 335.106 208.314 333.763L207.855 333.439L207.549 333.223L207.014 332.837L201.925 329.149L200.739 328.285L200.452 328.069L199.113 327.097C197.659 326.032 196.225 324.951 194.809 323.887L193.738 322.945L192.705 322.173L191.901 321.572L188.075 318.686L186.602 317.559L185.895 317.019L184.345 315.831L180.959 313.207L180.213 312.621L178.53 311.293L177.745 310.676L174.608 308.114L173.154 306.941L172.102 306.108L170.878 305.105L170.667 304.92C169.52 303.984 168.465 302.978 167.511 301.91C167.243 301.633 166.995 301.339 166.765 301.046C166.535 300.753 166.402 300.599 166.229 300.383C166.058 300.186 165.905 299.98 165.77 299.765C164.703 298.339 163.849 296.816 163.226 295.228C163.053 294.839 162.906 294.442 162.786 294.04C162.3 292.561 162.094 291.031 162.174 289.503C162.174 289.286 162.174 289.086 162.174 288.885C162.338 287.247 163.06 285.677 164.259 284.348C164.676 283.911 165.15 283.513 165.675 283.16C165.993 282.938 166.332 282.737 166.689 282.558C166.928 282.427 167.177 282.309 167.435 282.203C169.189 281.499 171.118 281.124 173.078 281.107H174.608C176.206 281.168 177.793 281.344 179.352 281.632L180.251 281.817C180.504 281.854 180.754 281.906 180.997 281.971C182.495 282.299 183.97 282.691 185.416 283.144L186.641 283.546L188.114 284.055L188.841 284.333C189.816 284.688 190.753 285.089 191.863 285.536L193.776 286.323L194.522 286.647L199.668 288.87L200.165 289.086L201.083 289.487C201.274 289.56 201.46 289.643 201.638 289.734C203.551 290.552 205.464 291.385 207.262 292.219L208.027 292.558L211.279 294.101L213.652 295.182L213.9 295.29L215.124 295.845L220.749 298.423L221.514 298.778L223.79 299.827L225.129 300.444L227.042 301.37L228.515 302.065L234.139 304.657L234.828 304.981L237.315 306.139L240.452 307.559L241.925 308.238L247.396 310.676H247.549L248.314 311L248.85 311.232C250.763 312.019 252.389 312.775 253.938 313.346L255.411 313.902C257.223 314.625 259.103 315.228 261.035 315.707H261.322L261.801 315.8C262.066 315.848 262.334 315.884 262.604 315.908C264.208 316.002 265.817 316.028 267.425 315.985H268.898C270.543 315.985 272.437 315.985 274.522 315.846H275.287L277.563 315.769L280.911 315.645H282.384L288.008 315.399H288.773L294.397 315.136H295.87L301.494 314.858H302.259L307.884 314.581L309.357 314.503L314.981 314.21H315.746L321.37 313.902L322.843 313.824L328.467 313.516H329.232L334.856 313.207L336.329 313.115L341.953 312.79H342.718L348.285 312.142Z" fill="#2DA0B9"/>
<path opacity="0.2" d="M167.588 282.203V301.91C167.32 301.633 167.071 301.339 166.841 301.046V282.527C167.082 282.407 167.331 282.299 167.588 282.203ZM180.328 281.833V312.59L181.074 313.176V281.987C180.836 281.922 180.593 281.87 180.347 281.833H180.328ZM173.231 281.107V306.941L174.685 308.114V281.107H173.231ZM186.717 283.561V317.513L188.19 318.639V284.07L186.717 283.561ZM193.814 286.339V322.945L194.56 323.501V286.663L193.814 286.339ZM207.3 292.234V332.807L207.607 333.023L208.066 333.347V292.574L207.3 292.234ZM201.122 289.503L200.203 289.101V327.868H200.49L201.676 328.732V289.749C201.498 289.658 201.313 289.576 201.122 289.503ZM213.938 295.228L213.69 295.12V337.297L214.091 337.575L215.163 338.301V295.784L213.938 295.228ZM220.787 298.315V342.051L221.552 342.56V298.716L220.787 298.315ZM234.962 304.873L234.273 304.549V350.415C234.541 350.57 234.79 350.724 235.038 350.847V304.92L234.962 304.873ZM227.176 301.339V346.264L228.649 347.174V302.003L227.176 301.339ZM240.662 307.512V354.165H241.447L242.135 354.474V308.176L240.662 307.512ZM247.759 310.692V356.403L248.525 356.557V311.031L247.759 310.692ZM261.533 315.784H261.246V358.44L262.011 358.533V315.8L261.533 315.784ZM254.149 313.361V357.499L255.622 357.715V313.932L254.149 313.361ZM267.539 316.062V359.274H268.649H269.012V316.047L267.539 316.062ZM274.636 315.892V359.984L275.402 360.061V315.877L274.636 315.892ZM288.027 315.352V361.295H288.792V315.337L288.027 315.352ZM280.93 315.661V360.616L282.403 360.755V315.615L280.93 315.661ZM294.321 315.059V361.882L295.794 362.021V315.013L294.321 315.059ZM301.418 314.72V362.561H302.183V314.72H301.418ZM314.904 314.025V363.687H315.669V313.994L314.904 314.025ZM307.807 314.395V363.07L309.28 363.193V314.334L307.807 314.395ZM321.293 313.67V364.197L322.766 364.32V313.686L321.293 313.67ZM328.39 313.284V364.783H329.156V313.253L328.39 313.284ZM341.877 312.513V357.267C342.004 356.465 342.138 355.632 342.278 354.767C342.278 354.567 342.278 354.366 342.278 354.165C342.278 353.61 342.451 353.039 342.546 352.468V312.482L341.877 312.513ZM334.78 312.929V365.292L336.253 365.416V312.852L334.78 312.929ZM331.642 365.045L334.78 365.292L336.253 365.416L338.969 365.647H340.079C340.197 365.457 340.281 365.255 340.327 365.045H331.642ZM268.515 359.32H268.878L274.502 359.922L275.268 359.999L279.687 360.446H341.609C341.609 360.076 341.743 359.675 341.838 359.274L268.515 359.32ZM241.217 354.165L241.906 354.474L242.614 354.767H342.565C342.565 354.567 342.565 354.366 342.565 354.165H241.217ZM222.375 343.285L223.312 343.887H343.828C343.828 343.687 343.828 343.486 343.924 343.285H222.375ZM230.581 348.44L232.59 349.613H343.12L343.292 348.44H230.581ZM213.862 337.637L214.933 338.362C215.14 338.52 215.357 338.67 215.584 338.81H344.861C344.861 338.424 344.957 338.023 345.014 337.637H213.862ZM206.535 332.483L207.071 332.868L207.377 333.084H345.416C345.416 332.884 345.416 332.683 345.416 332.483H206.535ZM191.748 321.602L192.552 322.204H346.812C346.812 322.004 346.812 321.803 346.812 321.602H191.748ZM198.635 326.742L199.974 327.714V327.93H346.085C346.085 327.529 346.181 327.127 346.238 326.742H198.635ZM277.544 315.862L275.268 315.939H274.502C272.417 315.939 270.524 316.062 268.878 316.078H267.405C265.798 316.12 264.189 316.095 262.585 316C262.315 315.977 262.046 315.941 261.781 315.892V315.8H184.46L186.009 316.988H347.692C347.692 316.571 347.788 316.17 347.826 315.8L277.544 315.862ZM248.295 311.093L247.53 310.769H177.86L178.644 311.386H249.06L248.295 311.093ZM223.828 299.796H165.847C165.981 300.01 166.135 300.217 166.306 300.413H225.167L223.828 299.796ZM235.038 304.981H170.782L170.993 305.167L172.217 306.17H237.563L235.038 304.981ZM213.69 295.166L211.318 294.086H162.863C162.983 294.488 163.13 294.885 163.302 295.274H213.938L213.69 295.166ZM200.203 289.148L199.706 288.932H162.327C162.327 289.132 162.327 289.333 162.327 289.549H201.198L200.203 289.148ZM188.19 284.117L186.717 283.607L185.493 283.206H165.828C165.303 283.559 164.829 283.958 164.412 284.394H188.917L188.19 284.117Z" fill="white"/>
<path d="M219.773 341.464C201.542 329.303 180.653 313.037 170.954 305.136C157.564 294.256 158.96 277.959 179.429 281.663C184.995 289.101 209.271 325.615 219.773 341.464Z" fill="#263238"/>
<path d="M335.679 316.895C335.679 316.756 335.43 316.71 335.392 316.895C334.512 320.476 334.148 324.149 333.651 327.775C333.154 331.402 332.675 335.26 332.255 339.026C331.432 346.495 330.456 354.026 330.15 361.542C330.167 361.595 330.205 361.642 330.259 361.676C330.313 361.709 330.379 361.728 330.447 361.728C330.515 361.728 330.581 361.709 330.634 361.676C330.688 361.642 330.726 361.595 330.743 361.542C332.14 354.165 332.886 346.665 333.747 339.242C334.167 335.569 334.588 331.88 334.914 328.192C335.239 324.504 335.736 320.645 335.679 316.895Z" fill="#263238"/>
<path d="M224.594 396.466C223.643 396.868 222.614 397.134 221.552 397.253L220.787 397.377L218.874 397.701L215.239 398.226L214.646 398.303L213.766 398.411L208.142 399.136L207.377 399.213C205.598 399.445 203.723 399.661 201.753 399.892L200.28 400.062L194.656 400.695L193.891 400.772L188.267 401.389L186.794 401.544L181.17 402.13L180.404 402.207L178.128 402.439L174.78 402.794H174.13C173.862 402.794 173.575 402.794 173.307 402.886L167.683 403.442L166.918 403.519L162.155 403.982L161.294 404.059L159.821 404.214L154.197 404.769L153.432 404.846L147.808 405.371L146.335 405.51L140.711 406.035L139.945 406.112L134.321 406.637C133.824 406.637 133.327 406.714 132.848 406.775L127.224 407.269L126.459 407.346H125.503L120.835 407.748L119.362 407.887L113.738 408.35L112.973 408.427H112.705C110.62 408.596 108.879 408.735 107.349 408.828L105.876 408.936L104.269 409.029C103.837 409.067 103.4 409.067 102.968 409.029C102.86 408.841 102.82 408.632 102.853 408.427C102.853 407.624 102.853 406.065 103.121 403.889C103.121 403.519 103.121 403.118 103.236 402.701C103.389 401.358 103.58 399.846 103.81 398.149C103.81 397.948 103.81 397.747 103.81 397.547C104.001 396.127 104.212 394.614 104.441 392.994L104.613 391.821C104.824 390.37 105.053 388.843 105.302 387.191C105.302 386.991 105.302 386.79 105.302 386.589C105.442 385.787 105.576 384.969 105.704 384.136L106.048 382.037C106.048 381.651 106.182 381.265 106.239 380.864C106.488 379.321 106.756 377.87 107.024 376.311L107.138 375.709C107.13 375.622 107.13 375.534 107.138 375.447C107.387 374.043 107.636 372.607 107.904 371.157C107.904 370.771 108.037 370.385 108.114 369.984C108.401 368.441 108.688 366.975 108.975 365.431L109.09 364.829C109.376 363.286 109.663 361.743 109.97 360.2C109.97 359.814 110.142 359.428 110.218 359.027C110.505 357.483 110.83 355.94 111.136 354.474C111.136 354.273 111.136 354.073 111.251 353.872C111.576 352.329 111.902 350.786 112.246 349.32C112.246 348.934 112.399 348.532 112.495 348.147C112.59 347.761 112.667 347.313 112.762 346.912L113.508 343.594C113.508 343.594 113.508 343.517 113.508 343.486L113.623 342.992C113.968 341.449 114.331 339.906 114.694 338.44C114.694 338.054 114.867 337.652 114.981 337.267C115.326 335.723 115.708 334.18 116.072 332.637L116.244 332.035C116.627 330.492 117.009 328.948 117.411 327.482C117.526 327.081 117.621 326.695 117.717 326.294C118.138 324.751 118.559 323.208 118.999 321.757C118.999 321.587 118.999 321.433 119.133 321.263C119.266 321.093 119.133 321.186 119.133 321.155C119.573 319.612 120.032 318.068 120.472 316.602L120.586 316.247C120.586 315.97 120.759 315.692 120.854 315.414C121.332 313.871 121.811 312.327 122.308 310.877C122.308 310.676 122.442 310.46 122.518 310.259C123.035 308.716 123.571 307.173 124.106 305.722L124.565 304.534C125.101 303.099 125.656 301.725 126.21 300.429C126.21 300.29 126.325 300.136 126.402 299.997C126.478 299.858 126.574 299.58 126.67 299.379C126.765 299.179 126.861 298.916 126.976 298.7C127.301 297.944 127.645 297.157 127.99 296.524C128.334 295.892 128.544 295.382 128.831 294.842C129.118 294.302 129.271 294.04 129.482 293.654C130.341 292.071 131.371 290.553 132.561 289.117C132.561 289.117 132.906 288.715 133.078 288.546C133.378 288.23 133.697 287.926 134.034 287.635L134.57 287.203L135.584 286.462C136.885 285.536 138.09 284.718 139.219 284.009C139.356 283.907 139.503 283.814 139.659 283.731L140.424 283.252L141.151 282.82C142.911 281.771 144.517 280.922 146.048 280.15L147.827 279.734L148.133 279.579C148.952 279.182 149.825 278.861 150.735 278.623C151.625 278.385 152.532 278.189 153.451 278.036H153.661L154.216 277.943C156.077 277.673 157.954 277.483 159.84 277.372H161.313C163.226 277.372 165.139 277.264 166.937 277.372H167.702C169.788 277.372 171.72 277.511 173.327 277.65L174.799 277.789C175.684 277.863 176.56 277.992 177.42 278.175L177.745 278.268C178.12 278.401 178.468 278.578 178.778 278.792C179.366 279.186 179.916 279.614 180.424 280.073L181.189 280.768C181.935 281.493 182.777 282.311 183.618 283.329C183.963 283.715 184.307 284.101 184.651 284.518C185.359 285.367 186.086 286.293 186.813 287.265C187.253 287.836 187.712 288.438 188.133 289.055L188.286 289.256L188.573 289.672C189.587 291.123 190.486 292.651 191.48 294.21C191.729 294.595 191.959 294.997 192.188 295.398C192.8 296.478 193.374 297.574 193.91 298.685C194.12 299.102 194.312 299.518 194.503 299.935L194.675 300.305L194.79 300.552C195.429 301.99 195.978 303.453 196.435 304.935C196.446 304.986 196.446 305.038 196.435 305.09C196.55 305.429 196.665 305.83 196.818 306.278C197.181 307.466 197.659 308.994 198.252 310.815C198.252 311.016 198.386 311.216 198.463 311.432C198.903 312.806 199.381 314.318 199.936 315.97C199.936 316.309 200.146 316.664 200.261 317.019C200.27 317.065 200.27 317.112 200.261 317.158C200.72 318.526 201.198 319.977 201.696 321.51V321.711C201.696 321.911 201.829 322.112 201.887 322.312L203.379 326.85C203.494 327.235 203.628 327.637 203.762 328.038C204.24 329.581 204.737 331.032 205.235 332.591C205.235 332.791 205.368 332.992 205.445 333.192C205.923 334.736 206.421 336.279 206.918 337.822L207.262 338.887C207.265 338.923 207.265 338.959 207.262 338.995C207.511 339.72 207.741 340.461 207.989 341.202L208.735 343.548C208.735 343.748 208.869 343.949 208.946 344.15C209.424 345.693 209.921 347.236 210.4 348.702C210.533 349.088 210.667 349.474 210.782 349.875C211.28 351.418 211.777 352.962 212.255 354.428C212.255 354.628 212.389 354.829 212.446 355.03C212.829 356.233 213.231 357.437 213.613 358.641L213.9 359.582C214.034 359.968 214.149 360.369 214.283 360.755L215.086 363.271C215.297 363.965 215.507 364.644 215.737 365.308C215.737 365.508 215.851 365.709 215.928 365.91L217.344 370.462C217.477 370.864 217.592 371.249 217.726 371.635C218.204 373.178 218.683 374.722 219.123 376.188C219.123 376.388 219.257 376.589 219.314 376.79L220.691 381.342L221.036 382.484C221.169 382.994 221.323 383.487 221.456 384.028C221.782 385.092 222.088 386.126 222.356 387.114L222.528 387.716C223.025 389.46 223.427 390.988 223.752 392.346C223.867 392.763 223.962 393.164 224.039 393.519C224.42 394.471 224.607 395.466 224.594 396.466Z" fill="#2DA0B9"/>
<path opacity="0.2" d="M113.661 343.795V408.488L112.896 408.565V347.221L113.642 343.903C113.642 343.903 113.661 343.825 113.661 343.795ZM107.234 375.941L107.119 376.543C106.851 378.086 106.583 379.629 106.335 381.095C106.335 381.497 106.201 381.882 106.143 382.268L105.742 384.367V409.059L107.215 408.951V375.678C107.213 375.766 107.219 375.854 107.234 375.941ZM120.625 316.988C120.185 318.531 119.725 319.997 119.285 321.541V407.964L120.758 407.825V316.633L120.625 316.988ZM126.784 299.796C126.784 299.997 126.593 300.197 126.516 300.413C126.44 300.629 126.383 300.707 126.325 300.845V407.439L127.09 407.362V299.086C127.033 299.302 126.937 299.534 126.784 299.796ZM139.811 284.101V406.204L140.577 406.127V283.592L139.811 284.101ZM133.231 288.916C133.059 289.086 132.887 289.286 132.714 289.487V406.868C133.193 406.868 133.69 406.775 134.187 406.729V287.975C133.869 288.266 133.569 288.57 133.288 288.885L133.231 288.916ZM146.201 280.521V405.602L147.674 405.464V279.734L146.201 280.521ZM153.508 278.036H153.298V404.939L154.063 404.862V277.913L153.508 278.036ZM166.784 277.234V403.612L167.549 403.534V277.203L166.784 277.234ZM159.687 277.372V404.275L161.16 404.121V277.28L159.687 277.372ZM173.078 277.511V402.979C173.345 402.979 173.632 402.979 173.9 402.886H174.551V277.619L173.078 277.511ZM180.175 279.934V402.238L180.94 402.161V280.598L180.175 279.934ZM194.407 299.796C194.216 299.379 194.025 298.963 193.814 298.546V400.803L194.579 400.726V299.796H194.407ZM188.037 288.993C187.616 288.376 187.157 287.774 186.717 287.203V401.652L188.19 401.497V289.086L188.037 288.993ZM200.242 317.096C200.251 317.05 200.251 317.003 200.242 316.957V400.108L201.715 399.939V321.402C201.192 319.838 200.701 318.367 200.242 316.988V317.096ZM207.339 338.856C207.341 338.82 207.341 338.784 207.339 338.748V399.321L208.104 399.244V341.063C207.817 340.214 207.587 339.473 207.339 338.748V338.856ZM221.131 382.376L220.787 381.234V397.485L221.552 397.361V383.873C221.418 383.271 221.265 382.777 221.131 382.268V382.376ZM214.359 360.616C214.225 360.23 214.111 359.829 213.977 359.443L213.69 358.502V398.411L214.57 398.303L215.163 398.226V363.07L214.359 360.616ZM102.777 408.581C102.744 408.786 102.783 408.995 102.891 409.183H105.742V409.09L107.215 408.982C108.688 408.89 110.486 408.751 112.571 408.581H102.777ZM103.159 402.855C103.159 403.272 103.159 403.673 103.044 404.044H162.078L166.841 403.581L167.607 403.504L173.231 402.948C173.499 402.948 173.785 402.948 174.053 402.855H103.159ZM103.81 397.701C103.81 397.902 103.81 398.102 103.81 398.303H214.646L215.239 398.226L218.874 397.701H103.81ZM222.413 386.821H105.397C105.397 387.021 105.397 387.222 105.397 387.423H222.623L222.413 386.821ZM223.809 391.975H104.613L104.441 393.148H224.134C224.058 392.793 223.962 392.392 223.847 391.975H223.809ZM220.748 381.173H106.335C106.335 381.574 106.201 381.96 106.143 382.345H221.131L220.748 381.173ZM219.161 375.987H107.234L107.119 376.589H219.39C219.333 376.342 219.256 376.141 219.199 375.941L219.161 375.987ZM215.775 365.184H109.223L109.109 365.786H216.004C215.928 365.462 215.87 365.261 215.813 365.061L215.775 365.184ZM217.382 370.339H108.248C108.248 370.74 108.114 371.126 108.037 371.512H217.803C217.669 371.002 217.554 370.617 217.42 370.215L217.382 370.339ZM213.938 359.459H110.352C110.352 359.86 110.18 360.246 110.103 360.632H214.359C214.225 360.122 214.111 359.721 213.977 359.335L213.938 359.459ZM212.293 354.304H111.481C111.481 354.505 111.481 354.705 111.366 354.906H212.618C212.465 354.582 212.389 354.381 212.331 354.181L212.293 354.304ZM208.773 343.424H113.776L113.661 343.918C113.661 343.918 113.661 343.995 113.661 344.026H209.041C209.041 343.702 208.888 343.501 208.812 343.301L208.773 343.424ZM210.438 348.579H112.628C112.628 348.965 112.456 349.366 112.38 349.752H210.954C210.744 349.181 210.61 348.841 210.476 348.455L210.438 348.579ZM207.262 338.764L206.918 337.699H115.096C114.981 338.084 114.886 338.486 114.809 338.872H207.3C207.312 338.795 207.312 338.717 207.3 338.64L207.262 338.764ZM205.234 332.59H116.397L116.225 333.192H205.483C205.407 332.822 205.349 332.621 205.215 332.421L205.234 332.59ZM201.695 321.71H119.247V321.818C119.247 321.988 119.247 322.143 119.113 322.312H201.887C201.868 321.942 201.791 321.741 201.734 321.541L201.695 321.71ZM203.379 326.85H117.87C117.87 327.251 117.679 327.637 117.564 328.038H203.8C203.666 327.467 203.532 327.066 203.417 326.68L203.379 326.85ZM200.165 317.019C200.05 316.664 199.936 316.309 199.84 315.97H121.045C121.045 316.247 120.854 316.525 120.778 316.803L120.663 317.158H200.242C200.275 317.055 200.261 316.945 200.203 316.849L200.165 317.019ZM198.252 310.846H122.691C122.691 311.046 122.537 311.263 122.48 311.463H198.405C198.329 311.046 198.252 310.846 198.195 310.599L198.252 310.846ZM194.637 300.336V299.796H126.784C126.784 299.997 126.593 300.197 126.516 300.413H194.694L194.637 300.336ZM196.435 305.12H124.737L124.278 306.309H196.76C196.607 305.66 196.492 305.259 196.377 304.92L196.435 305.12ZM191.442 294.317H129.654C129.443 294.703 129.214 295.089 129.003 295.506H192.131C191.825 294.827 191.633 294.425 191.385 294.04L191.442 294.317ZM188.247 289.364L188.094 289.163H133.288C133.116 289.333 132.944 289.533 132.772 289.734C132.6 289.935 132.772 289.734 132.772 289.734H188.515L188.247 289.364ZM177.707 278.376L177.382 278.283H153.355C152.436 278.436 151.529 278.632 150.639 278.869H178.683C178.394 278.567 178.045 278.306 177.65 278.098L177.707 278.376ZM183.58 283.437H141.495L140.768 283.87L140.003 284.348C139.847 284.431 139.7 284.524 139.563 284.626H184.555C184.173 283.931 183.867 283.545 183.522 283.16L183.58 283.437Z" fill="white"/>
<path d="M178.051 402.439C160.012 404.306 140.175 406.189 125.426 407.485L128.162 296.91C130.304 292.466 132.542 289.194 134.78 287.543L135.794 286.802L178.051 402.439Z" fill="#263238"/>
<path d="M202.92 387.037C202.002 383.611 201.077 380.185 200.146 376.759C198.271 369.907 196.358 363.06 194.407 356.218C190.466 342.421 186.29 328.671 181.877 314.966C179.429 307.25 176.808 299.626 174.398 291.925C174.387 291.902 174.367 291.881 174.342 291.867C174.316 291.853 174.285 291.845 174.254 291.845C174.223 291.845 174.192 291.853 174.167 291.867C174.141 291.881 174.122 291.902 174.111 291.925C178.53 305.568 182.375 319.334 186.334 333.069C190.294 346.804 194.178 360.416 197.965 374.12L201.122 385.648C202.174 389.537 203.035 393.549 204.412 397.346C204.565 397.778 205.502 397.685 205.426 397.222C204.928 393.935 203.819 390.432 202.92 387.037Z" fill="#263238"/>
<path d="M174.302 295.459C167.224 296.247 156.32 286.786 152.437 279.502C152.169 279.008 153.661 274.07 155.134 268.005C155.995 264.316 156.856 260.196 157.315 256.399C157.315 255.612 160.529 257.294 160.529 257.294L166.478 258.961L186.201 264.455C183.954 269.081 182.418 273.911 181.629 278.838C181.565 279.352 181.565 279.869 181.629 280.382V280.644C181.896 283.7 181.15 294.688 174.302 295.459Z" fill="#AD6359"/>
<path d="M181.648 280.428V280.69C180.632 280.721 179.615 280.685 178.606 280.582C158.731 278.7 158.635 258.128 158.635 258.128L166.478 259.008L186.201 264.502C183.954 269.127 182.418 273.958 181.629 278.885C181.571 279.399 181.577 279.916 181.648 280.428Z" fill="#263238"/>
<path d="M160.911 226.121C155.612 233.837 154.828 258.853 160.758 265.443C169.386 275.011 186.583 278.684 197.449 269.764C207.97 261.106 208.276 228.574 201.275 222.324C191.155 213.111 168.754 214.608 160.911 226.121Z" fill="#AD6359"/>
<path d="M186.564 246.8C186.564 246.8 186.392 246.877 186.392 246.939C186.392 248.621 186.048 250.55 184.135 251.06C184.135 251.06 184.135 251.168 184.135 251.152C186.469 250.952 186.889 248.39 186.564 246.8Z" fill="#263238"/>
<path d="M184.766 244.995C181.418 244.717 180.94 250.118 184.058 250.396C187.176 250.674 187.559 245.242 184.766 244.995Z" fill="#263238"/>
<path d="M198.558 247.742C198.558 247.742 198.73 247.834 198.711 247.911C198.501 249.578 198.711 251.523 200.452 252.186C200.452 252.186 200.452 252.294 200.452 252.279C198.137 251.955 198.042 249.3 198.558 247.742Z" fill="#263238"/>
<path d="M200.567 246.106C203.934 246.106 203.723 251.507 200.567 251.523C197.411 251.538 197.755 246.121 200.567 246.106Z" fill="#263238"/>
<path d="M182.26 242.371C183.158 242.214 184.046 242.018 184.919 241.785C185.89 241.684 186.791 241.325 187.482 240.766C187.66 240.556 187.747 240.305 187.729 240.051C187.712 239.797 187.592 239.555 187.387 239.362C186.907 239.035 186.328 238.817 185.71 238.73C185.091 238.643 184.455 238.691 183.867 238.868C182.605 239.078 181.486 239.662 180.73 240.504C180.568 240.703 180.483 240.936 180.483 241.174C180.484 241.412 180.571 241.645 180.734 241.843C180.897 242.042 181.128 242.198 181.399 242.291C181.67 242.385 181.969 242.413 182.26 242.371Z" fill="#263238"/>
<path d="M203.398 243.529C202.48 243.343 201.676 243.066 200.777 242.819C199.816 242.668 198.942 242.267 198.29 241.677C198.127 241.461 198.057 241.207 198.092 240.956C198.127 240.705 198.264 240.47 198.482 240.288C198.985 239.984 199.58 239.792 200.204 239.733C200.829 239.673 201.462 239.747 202.04 239.948C203.283 240.22 204.359 240.852 205.062 241.723C205.205 241.931 205.271 242.167 205.251 242.404C205.232 242.641 205.128 242.869 204.952 243.059C204.777 243.25 204.537 243.395 204.261 243.479C203.985 243.562 203.686 243.579 203.398 243.529Z" fill="#263238"/>
<path d="M185.914 257.356C186.382 258.049 187.024 258.656 187.797 259.14C188.571 259.623 189.46 259.972 190.409 260.165C191.238 260.342 192.096 260.42 192.953 260.396C193.118 260.412 193.285 260.412 193.451 260.396H193.91C194.021 260.384 194.124 260.342 194.203 260.278C194.283 260.214 194.334 260.131 194.35 260.041C194.359 259.985 194.359 259.928 194.35 259.872V259.671C194.503 258.375 194.503 256.415 194.503 256.415C195.077 256.677 197.965 257.958 197.965 257.248C198.286 251.416 197.869 245.573 196.722 239.809C196.722 239.768 196.702 239.729 196.666 239.7C196.63 239.671 196.581 239.655 196.531 239.655C196.48 239.655 196.431 239.671 196.395 239.7C196.359 239.729 196.339 239.768 196.339 239.809C195.995 245.195 196.856 250.612 196.626 256.014C195.601 255.551 194.499 255.209 193.355 254.995C193.125 254.995 193.355 258.807 193.355 259.393C192.036 259.423 190.723 259.239 189.494 258.852C188.265 258.465 187.145 257.883 186.201 257.14C185.971 257.109 185.799 257.217 185.914 257.356Z" fill="#263238"/>
<path d="M202.767 230.766C192.112 235.658 179.218 226.306 179.218 226.306C178.176 228.021 176.476 229.418 174.37 230.291C172.264 231.164 169.865 231.466 167.53 231.151C167.53 231.151 164.125 244.763 159.63 244.439C152.781 243.945 152.609 225.04 155.153 221.506C157.698 217.972 163.609 217.416 163.609 217.416C164.481 215.228 166.346 213.387 168.831 212.262C173.805 209.685 189.529 214.669 189.529 214.669C190.636 212.989 192.215 211.541 194.139 210.441C194.602 210.167 195.129 209.972 195.688 209.867C196.246 209.762 196.826 209.75 197.391 209.831C197.956 209.911 198.495 210.084 198.975 210.337C199.455 210.591 199.866 210.92 200.184 211.305C199.247 212.27 198.593 213.394 198.271 214.592C197.047 218.558 201.122 218.821 201.466 215.179C201.645 213.813 201.218 212.441 200.261 211.305C202.518 209.052 205.885 208.496 207.741 209.916C211.05 212.478 211.624 226.707 202.767 230.766Z" fill="#263238"/>
<path d="M162.193 246.769C162.193 246.769 157.258 237.942 152.418 239.223C147.578 240.504 150.027 252.572 154.809 254.902C155.398 255.235 156.065 255.469 156.769 255.589C157.473 255.709 158.199 255.712 158.905 255.6C159.611 255.488 160.281 255.261 160.876 254.934C161.471 254.608 161.977 254.187 162.365 253.699L162.193 246.769Z" fill="#AD6359"/>
<path d="M153.221 242.695C153.221 242.695 153.107 242.772 153.221 242.803C156.569 244.532 157.832 247.526 158.52 250.52C158.378 250.195 158.151 249.899 157.853 249.652C157.556 249.405 157.195 249.214 156.797 249.091C156.398 248.967 155.971 248.915 155.546 248.938C155.12 248.961 154.705 249.058 154.331 249.223C154.235 249.223 154.331 249.393 154.331 249.393C155.006 249.326 155.691 249.429 156.29 249.689C156.89 249.949 157.375 250.352 157.678 250.844C158.168 251.664 158.553 252.522 158.826 253.405C158.941 253.699 159.553 253.652 159.496 253.328C160.452 249.532 158.08 243.791 153.221 242.695Z" fill="#263238"/>
<path d="M181.648 280.69L175.22 293.623L153.011 276.4L147.1 282.218C147.1 282.218 169.213 309.904 169.309 308.639L176.024 296.385L186.66 304.549L185.072 283.468L181.648 280.69Z" fill="#2DA0B9"/>
<path d="M186.602 294.071C186.201 290.598 185.914 287.08 185.301 283.623C185.291 283.599 185.271 283.579 185.245 283.564C185.22 283.55 185.189 283.542 185.158 283.542C185.127 283.542 185.096 283.55 185.071 283.564C185.045 283.579 185.025 283.599 185.015 283.623C184.268 287.002 185.914 300.274 186.009 303.469C185.55 303.114 176.158 296.293 176.062 296.401C174.589 298.361 169.653 307.204 169.309 308.083C165.808 303.685 151.002 286.37 146.908 282.234C146.884 282.216 146.853 282.206 146.821 282.204C146.788 282.202 146.756 282.208 146.728 282.222C146.7 282.236 146.679 282.256 146.666 282.28C146.654 282.305 146.652 282.332 146.66 282.357C149.778 286.987 168.907 309.874 169.175 309.812C171.796 305.598 174.139 301.276 176.196 296.864C177.803 298.407 187.329 306.123 187.348 305.552C187.35 301.717 187.101 297.885 186.602 294.071Z" fill="#263238"/>
<path d="M269.127 374.243H346.812L361.484 285.552H283.819L269.127 374.243Z" fill="#A6A6A6"/>
<path d="M272.953 374.243H350.619L365.31 285.552H287.625L272.953 374.243Z" fill="#DBDBDB"/>
<path d="M326.688 325.507C326.478 327.159 325.525 328.691 324.009 329.814C322.493 330.937 320.52 331.574 318.462 331.603C317.495 331.616 316.535 331.463 315.647 331.154C314.759 330.845 313.963 330.387 313.311 329.81C312.66 329.234 312.168 328.552 311.869 327.81C311.569 327.067 311.469 326.283 311.576 325.507C311.759 323.843 312.699 322.292 314.213 321.152C315.728 320.013 317.711 319.365 319.782 319.334C320.759 319.319 321.728 319.474 322.625 319.787C323.521 320.101 324.324 320.566 324.978 321.151C325.633 321.736 326.124 322.428 326.419 323.179C326.714 323.931 326.806 324.724 326.688 325.507Z" fill="white"/>
<path d="M129.367 305.383C125.713 346.665 134.723 375.092 143.733 378.132C168.028 386.343 241.887 390.911 258.816 389.46C265.435 388.904 261.074 344.628 253.957 344.705C236.32 345.091 171.7 345.523 170.859 345.214C165.369 343.131 165.12 329.365 152.418 299.95C142.184 276.215 130.859 288.499 129.367 305.383Z" fill="#AD6359"/>
<path d="M310.428 335.94C311.349 337.011 311.843 338.285 311.843 339.589C311.843 340.894 311.349 342.167 310.428 343.239C312.993 344.028 315.132 345.52 316.473 347.452C318.634 350.955 312.8 355.169 312.8 355.169C315.243 356.446 317.155 358.284 318.29 360.447C319.954 363.965 314.808 368.95 314.808 368.95C316.251 371.118 316.685 373.63 316.033 376.034C314.713 380.139 302.03 385.37 294.474 387.315C286.918 389.259 263.254 389.09 258.721 389.414L242.824 350.431C242.824 350.431 273.584 333.933 282.862 332.652C290.782 331.634 306.774 331.958 310.428 335.94Z" fill="#AD6359"/>
<path d="M309.93 342.699C301.284 342.22 292.943 343.841 284.488 345.091C284.297 345.091 284.354 345.353 284.488 345.322C292.867 344.011 301.475 344.057 309.911 343.023C309.955 343.014 309.994 342.994 310.022 342.966C310.05 342.938 310.067 342.903 310.069 342.867C310.071 342.83 310.059 342.795 310.034 342.764C310.009 342.734 309.973 342.711 309.93 342.699Z" fill="#263238"/>
<path d="M312.532 354.752C310.587 354.802 308.657 355.056 306.793 355.508C304.746 355.894 302.719 356.31 300.691 356.743C296.655 357.622 292.618 358.579 288.639 359.628C288.616 359.622 288.591 359.619 288.567 359.622C288.542 359.624 288.519 359.632 288.499 359.643C288.478 359.654 288.462 359.669 288.451 359.687C288.439 359.705 288.433 359.724 288.433 359.744C288.433 359.764 288.439 359.784 288.451 359.801C288.462 359.819 288.478 359.834 288.499 359.846C288.519 359.857 288.542 359.864 288.567 359.867C288.591 359.869 288.616 359.867 288.639 359.86C292.676 358.996 296.731 358.162 300.806 357.437C302.853 357.067 304.899 356.727 306.946 356.388C308.908 356.164 310.833 355.765 312.685 355.199C312.759 355.183 312.821 355.144 312.859 355.09C312.897 355.037 312.906 354.973 312.886 354.914C312.866 354.854 312.817 354.804 312.751 354.774C312.684 354.743 312.606 354.735 312.532 354.752Z" fill="#263238"/>
<path d="M314.732 369.027C312.945 369.086 311.185 369.394 309.529 369.938L304.019 371.203C300.327 372.036 296.655 372.854 292.943 373.58C292.752 373.58 292.81 373.857 292.943 373.811C296.769 373.101 300.595 372.422 304.268 371.666C306.181 371.311 307.979 370.925 309.835 370.539C311.556 370.323 313.215 369.858 314.732 369.166C314.732 369.166 314.828 369.027 314.732 369.027Z" fill="#263238"/>
<path d="M247.033 342.606V392.3L242.135 392.099C241.676 392.099 241.179 392.099 240.662 392.099H239.017L235.038 391.929C234.79 391.929 234.541 391.929 234.273 391.929L228.649 391.636H227.176L221.552 391.327H220.787L215.163 390.972L213.69 390.88L208.066 390.494H207.3L201.676 390.077L200.203 389.954L194.579 389.475H193.814C191.901 389.321 189.988 389.136 188.19 388.966L186.717 388.827L181.093 388.241L180.347 387.762L177.611 387.454L174.723 387.114L173.25 386.929L172.714 386.852C170.974 386.636 169.29 386.404 167.626 386.157L166.861 386.049C164.948 385.772 163.035 385.478 161.237 385.17L159.764 384.907C157.851 384.552 155.938 384.197 154.14 383.812L153.374 383.642C151.423 383.21 149.644 382.762 148.037 382.299L147.75 382.222L146.277 381.759C145.665 381.543 145.072 381.342 144.537 381.126C143.158 380.627 141.871 379.978 140.711 379.197L140.519 379.058L139.945 378.58C139.226 377.964 138.585 377.292 138.032 376.574C137.879 376.388 137.746 376.188 137.592 375.972C136.569 374.515 135.699 372.993 134.991 371.419L134.474 370.246L134.302 369.814C133.786 368.579 133.288 367.252 132.829 365.848V365.694L132.657 365.092C132.179 363.641 131.758 362.113 131.337 360.462C131.337 360.076 131.146 359.69 131.069 359.289C130.687 357.823 130.362 356.295 130.055 354.736C130.055 354.536 129.96 354.335 129.922 354.135C129.635 352.591 129.367 351.125 129.118 349.582C129.118 349.196 128.984 348.795 128.927 348.409C128.697 346.866 128.468 345.322 128.276 343.856C128.276 343.656 128.276 343.455 128.276 343.255C128.085 341.711 127.913 340.168 127.76 338.702L127.645 337.529C127.53 336.356 127.435 335.183 127.339 334.01C127.339 333.671 127.339 333.331 127.339 332.976V332.374C127.224 330.831 127.148 329.288 127.071 327.822C127.071 327.421 127.071 327.019 127.071 326.634C127.071 325.09 126.956 323.547 126.918 322.096V321.494C126.918 319.951 126.918 318.408 126.918 316.942V315.753C126.918 314.21 126.918 312.667 127.033 311.216C127.033 311 127.033 310.8 127.033 310.599C127.033 309.056 127.167 307.512 127.282 306.062C127.282 305.661 127.282 305.259 127.282 304.873C127.282 304.133 127.416 303.438 127.492 302.759C127.569 302.08 127.703 301.092 127.817 300.336C127.817 300.12 127.817 299.92 127.817 299.719C127.989 298.654 128.2 297.697 128.41 296.864C128.563 296.277 128.716 295.722 128.908 295.182C129.099 294.642 129.195 294.379 129.348 293.993C129.955 292.39 130.837 290.863 131.968 289.456L132.542 288.839L133.021 288.376C133.458 287.957 133.952 287.58 134.494 287.249C135.265 286.725 136.164 286.335 137.132 286.107C138.1 285.878 139.117 285.815 140.118 285.922L140.883 286.046C143.029 286.542 144.963 287.509 146.469 288.839C146.698 289.024 146.928 289.209 147.157 289.425C147.387 289.641 147.693 289.904 147.942 290.166C149.125 291.354 150.175 292.625 151.079 293.963L151.882 295.151C152.456 296.061 153.011 297.034 153.566 298.083C153.814 298.577 154.082 299.086 154.331 299.626L154.618 300.244C155.173 301.463 155.727 302.759 156.244 304.133C156.244 304.349 156.416 304.565 156.492 304.781C156.569 304.997 156.779 305.568 156.952 305.969L158.654 310.506L158.884 311.124C159.228 312.065 159.572 312.991 159.917 313.886C160.146 314.488 160.376 315.074 160.586 315.661C160.797 316.247 160.892 316.463 161.026 316.849C161.16 317.235 161.275 317.467 161.39 317.775L162.767 321.402C162.767 321.602 162.939 321.803 163.016 322.004C163.609 323.547 164.202 325.09 164.756 326.541C164.929 326.942 165.082 327.343 165.216 327.729C165.847 329.273 166.44 330.816 167.014 332.189C167.014 332.189 167.014 332.189 167.014 332.282C167.014 332.374 167.167 332.683 167.262 332.884L167.741 334.026C168.257 335.276 168.754 336.402 169.214 337.436L169.768 338.609C170.446 340.185 171.298 341.709 172.313 343.162C172.484 343.379 172.683 343.58 172.906 343.764C173.032 343.859 173.193 343.918 173.365 343.934H174.838L180.462 343.841H181.227H183.714H186.851H188.324L193.948 343.733H194.713L200.337 343.625H201.81L207.434 343.517H208.2L213.824 343.409H215.297L220.921 343.285H221.686L227.31 343.162H228.783L234.407 343.054H235.172L240.796 342.93H242.269L247.033 342.606Z" fill="#2DA0B9"/>
<path opacity="0.2" d="M127.148 302.882V334.056C127.148 333.717 127.148 333.377 127.148 333.022V332.421C127.033 330.877 126.956 329.334 126.88 327.868C126.88 327.467 126.88 327.065 126.88 326.68C126.88 325.136 126.765 323.593 126.727 322.142V321.541C126.727 319.997 126.727 318.454 126.727 316.988V315.8C126.727 314.256 126.727 312.713 126.842 311.262C126.842 311.046 126.842 310.846 126.842 310.645C126.842 309.102 126.975 307.559 127.09 306.108C127.09 305.707 127.09 305.305 127.09 304.92C126.995 304.179 127.071 303.484 127.148 302.882ZM139.869 285.906V378.502L140.443 378.981L140.634 379.12V286.092L139.869 285.906ZM132.772 288.36V365.755C133.231 367.159 133.728 368.487 134.245 369.721V287.295C133.703 287.626 133.209 288.004 132.772 288.422V288.36ZM146.947 289.441C146.717 289.225 146.488 289.039 146.258 288.854V381.666L147.731 382.129V290.243C147.482 289.981 147.215 289.734 146.947 289.502V289.441ZM153.355 298.098V383.549L154.12 383.719V299.688C153.872 299.163 153.566 298.654 153.355 298.16V298.098ZM167.128 332.961C167.033 332.76 166.956 332.559 166.88 332.359C166.803 332.158 166.88 332.359 166.88 332.266V385.956L167.645 386.064V334.164L167.128 332.961ZM160.854 316.926C160.72 316.54 160.567 316.139 160.414 315.738C160.261 315.337 159.974 314.565 159.744 313.963V384.814L161.217 385.077V316.988L160.854 316.926ZM173.231 344.01V386.836L174.704 387.021V344.057L173.231 344.01ZM180.328 343.841V387.762L181.093 387.855V343.902L180.328 343.841ZM193.718 343.64V388.997H194.484V343.686L193.718 343.64ZM186.621 343.779V388.349L188.094 388.487V343.733L186.621 343.779ZM200.012 343.517V389.537L201.485 389.66V343.548L200.012 343.517ZM207.109 343.378V390.077H207.874V343.424L207.109 343.378ZM220.5 343.1V390.941H221.265V343.146L220.5 343.1ZM214.13 343.239H213.403V390.525L214.876 390.617V343.285L214.13 343.239ZM226.889 342.961V391.327H228.362V343.007L226.889 342.961ZM233.986 342.822V391.697C234.254 391.697 234.503 391.697 234.751 391.697V342.868L233.986 342.822ZM240.375 342.683V391.975C240.892 391.975 241.389 391.975 241.848 391.975V342.591L240.375 342.683ZM172.695 386.821L173.231 386.898L174.704 387.083L177.592 387.423H247.032V386.821H172.695ZM239.017 391.975H240.662C241.179 391.975 241.676 391.975 242.135 391.975L247.032 392.176V391.852L239.017 391.975ZM144.517 381.095C145.053 381.311 145.646 381.512 146.258 381.728L147.731 382.191L148.018 382.268H247.032V381.095H144.517ZM137.535 375.941C137.688 376.157 137.822 376.357 137.975 376.543H247.013V375.941H137.535ZM132.542 365.138L132.714 365.74H247.032V365.138H132.542ZM134.455 370.292L134.972 371.465H247.071V370.292H134.455ZM130.993 359.412C130.993 359.814 131.165 360.199 131.26 360.585H247.071V359.412H130.993ZM129.845 354.258C129.845 354.458 129.845 354.659 129.979 354.86H247.071V354.258H129.845ZM128.123 343.378C128.123 343.578 128.123 343.779 128.123 343.98H172.695C172.472 343.796 172.273 343.594 172.102 343.378H128.123ZM213.728 343.378L208.104 343.486H207.339L201.715 343.594H200.242L194.618 343.702H193.738L188.113 343.81H186.64H183.503H246.956V343.208L213.728 343.378ZM128.85 348.532C128.85 348.918 128.965 349.319 129.041 349.705H247.071V348.532H128.85ZM169.118 337.729H127.454L127.569 338.902H169.653L169.118 337.729ZM166.956 332.421H127.014V333.022H167.071C166.956 332.822 166.956 332.621 166.956 332.421ZM162.671 321.541H126.516V322.142H162.862C162.767 321.942 162.69 321.741 162.595 321.541H162.671ZM164.584 326.68H126.669C126.669 327.065 126.669 327.467 126.669 327.868H164.928C164.909 327.482 164.756 327.081 164.584 326.68ZM160.414 315.8H126.459V316.988H160.892C160.72 316.602 160.567 316.201 160.414 315.8ZM158.501 310.645H126.593C126.593 310.846 126.593 311.046 126.593 311.262H158.73L158.501 310.645ZM154.178 299.842H127.588C127.588 300.043 127.588 300.243 127.588 300.459H154.56L154.178 299.842ZM156.339 304.997H126.937C126.937 305.383 126.937 305.784 126.937 306.185H156.875C156.607 305.707 156.473 305.321 156.32 304.92L156.339 304.997ZM150.887 294.194H129.099C128.946 294.58 128.793 294.981 128.659 295.382H151.614L150.887 294.194ZM146.258 288.993H132.293L131.72 289.61H147.023C146.717 289.286 146.488 289.101 146.258 288.993Z" fill="white"/>
<path d="M247.434 342.622C247.484 342.543 247.507 342.456 247.503 342.368C247.498 342.28 247.465 342.195 247.407 342.12C247.349 342.046 247.269 341.984 247.173 341.942C247.077 341.9 246.969 341.879 246.86 341.881C237.181 341.788 227.444 342.205 217.764 342.406C208.085 342.606 198.367 342.761 188.668 343.023C183.216 343.177 172.733 343.563 172.638 343.44C172.542 343.316 169.615 335.97 168.984 334.442C167.76 331.464 166.478 328.501 165.158 325.522C164.795 324.658 164.412 323.794 164.029 322.945C163.915 322.359 163.781 321.772 163.704 321.201C163.628 320.63 163.475 319.658 163.36 318.794C163.14 317.201 162.815 315.62 162.384 314.056C162.368 314.03 162.34 314.009 162.306 313.998C162.272 313.987 162.234 313.986 162.2 313.995C162.165 314.004 162.136 314.023 162.117 314.049C162.098 314.074 162.091 314.104 162.097 314.133C162.492 315.76 162.697 317.413 162.709 319.071L162.824 320.26C160.911 316.155 160.452 315.429 158.826 311.278C158.835 311.259 158.838 311.239 158.835 311.219C158.831 311.2 158.822 311.181 158.808 311.164C158.794 311.148 158.775 311.135 158.754 311.125C158.732 311.116 158.707 311.111 158.683 311.111C158.658 311.111 158.634 311.116 158.612 311.125C158.59 311.135 158.571 311.148 158.557 311.164C158.543 311.181 158.534 311.2 158.531 311.219C158.528 311.239 158.531 311.259 158.539 311.278C160.452 317.281 161.485 319.858 163.819 325.785C165.005 328.779 166.172 331.772 167.415 334.766C168.027 336.217 170.82 343.007 171.719 344.366C171.834 344.535 181.667 344.088 186.507 344.026C191.346 343.964 196.205 343.903 201.064 343.81L230.16 343.224C235.536 343.115 240.949 343.115 246.325 342.869C246.325 343.378 246.803 345.955 246.765 346.125C246.726 346.295 247.071 346.325 247.052 346.125C247.032 345.924 247.453 342.668 247.434 342.622Z" fill="#263238"/>
<path d="M236.148 346.573C236.148 346.449 235.88 346.403 235.842 346.573C235.229 350.014 235.134 353.533 234.885 357.005C234.636 360.477 234.445 364.197 234.292 367.808C234.005 374.984 233.565 382.191 233.814 389.414C233.814 389.475 233.844 389.534 233.898 389.577C233.952 389.621 234.025 389.645 234.101 389.645C234.177 389.645 234.25 389.621 234.304 389.577C234.358 389.534 234.388 389.475 234.388 389.414C235.268 382.33 235.478 375.154 235.803 368.039C235.969 364.521 236.097 360.992 236.186 357.453C236.243 353.81 236.473 350.137 236.148 346.573Z" fill="#263238"/>
<path d="M247.511 372.052V370.508C247.511 370.262 247.511 369.999 247.511 369.752C247.555 369.642 247.555 369.523 247.511 369.413C247.511 369.274 247.511 369.135 247.511 368.981H247.358C247.358 369.135 247.358 369.274 247.358 369.413C247.358 369.413 247.358 369.505 247.358 369.521C247.186 373.24 246.688 376.959 246.478 380.679C246.267 384.398 246.191 388.163 246.229 391.929C240.969 391.574 235.631 391.62 230.352 391.404C225.072 391.188 219.41 390.864 213.939 390.509C202.977 389.799 192.035 388.966 181.131 387.716L172.045 386.682C168.965 386.327 165.751 386.142 162.729 385.555C162.537 385.555 162.461 385.771 162.729 385.802C165.503 386.08 168.257 386.697 171.012 387.099C173.766 387.5 176.406 387.87 179.123 388.21C184.53 388.909 189.956 389.527 195.402 390.062C206.268 391.152 217.171 391.919 228.114 392.361L237.506 392.685C240.586 392.762 243.704 392.917 246.784 392.793C246.915 392.786 247.039 392.742 247.133 392.669C247.228 392.595 247.287 392.497 247.3 392.392C247.3 388.488 247.549 384.583 247.606 380.679C247.606 378.765 247.606 376.851 247.606 374.938C247.568 373.965 247.549 373.009 247.511 372.052Z" fill="#263238"/>
<path d="M361.083 311.077C365.961 316.139 377.247 321.664 379.198 326.155C379.726 327.251 379.803 328.455 379.417 329.589C379.031 330.723 378.203 331.726 377.056 332.452C377.056 332.452 383.407 333.732 384.344 338.038C384.822 340.26 380.844 342.838 380.844 342.838C382.26 343.19 383.528 343.85 384.51 344.746C385.492 345.642 386.15 346.738 386.41 347.915C386.831 351.002 382.795 353.116 382.795 353.116C382.795 353.116 386.946 356.079 386.123 359.289C384.478 365.894 352.188 371.635 344.574 362.931C341.016 358.872 348.993 357.823 348.993 357.823C348.993 357.823 337.075 357.098 335.43 351.758C333.785 346.418 344.268 345.585 344.268 345.585C344.268 345.585 332.695 344.813 331.7 339.134C330.705 333.455 341.265 333.794 341.265 333.794C341.265 333.794 333.02 331.155 333.479 326.664C334.244 319.257 352.264 325.569 358.998 322.945L361.083 311.077Z" fill="#AD6359"/>
<path d="M381.016 342.853C381.131 342.853 381.207 342.992 381.016 343.038C369.461 347.543 356.29 348.561 343.885 345.909C343.465 345.816 343.197 345.369 343.713 345.461C352.283 346.943 370.801 345.43 381.016 342.853Z" fill="#263238"/>
<path d="M340.48 333.378C352.628 335.878 364.564 334.921 376.654 332.637C376.807 332.637 376.845 332.776 376.654 332.837C371.145 335.291 363.264 336.125 357.027 336.371C351.262 336.686 345.496 335.77 340.308 333.717C340.155 333.64 340.212 333.331 340.48 333.378Z" fill="#263238"/>
<path d="M587.902 513.276C586.295 516.764 507.558 595.733 502.201 597.214C500.174 597.785 485.253 589.205 467.577 578.417C463.751 576.087 459.925 573.664 455.87 571.195C430.102 555.129 403.225 537.598 403.225 537.598L455.697 484.648L506.907 519.711L518.155 527.428C518.155 527.428 565.061 508.075 571.163 506.964C577.266 505.853 589.508 509.773 587.902 513.276Z" fill="#AD6359"/>
<path d="M587.901 513.276C586.295 516.764 507.557 595.733 502.201 597.214C499.714 597.893 478.213 585.084 455.869 571.195L506.907 519.712L518.155 527.428C518.155 527.428 565.061 508.075 571.163 506.964C577.265 505.853 589.508 509.773 587.901 513.276Z" fill="white"/>
<path d="M587.902 513.276C586.295 516.764 507.558 595.733 502.201 597.214C500.174 597.785 485.253 589.205 467.577 578.417L518.155 527.397C518.155 527.397 565.061 508.044 571.163 506.933C577.266 505.822 589.509 509.773 587.902 513.276Z" fill="#2DA0B9"/>
<path d="M582.871 511.856C569.25 524.835 515.917 578.217 503.693 591.859C503.693 591.967 503.693 592.029 503.789 591.859C517.62 579.251 570.436 525.499 583.138 511.98C583.406 511.748 583.157 511.594 582.871 511.856Z" fill="#263238"/>
<path d="M562.574 509.68C561.069 511.123 559.951 512.802 559.293 514.611C558.634 516.42 558.449 518.32 558.748 520.19C559.218 523.557 561.272 526.651 564.487 528.832C564.583 528.832 564.736 528.755 564.64 528.678C561.834 526.122 560.131 522.901 559.786 519.498C559.441 516.095 560.473 512.694 562.727 509.804C562.73 509.787 562.729 509.77 562.722 509.754C562.716 509.737 562.704 509.723 562.689 509.711C562.675 509.699 562.656 509.69 562.636 509.684C562.616 509.679 562.595 509.678 562.574 509.68Z" fill="#263238"/>
<path d="M524.908 523.323C519.533 528.554 515.726 536.209 517.811 542.984C517.811 543.246 518.366 543.154 518.423 542.984C520.028 536.4 522.504 529.974 525.807 523.817C525.889 523.72 525.919 523.602 525.892 523.488C525.865 523.373 525.783 523.272 525.664 523.207C525.545 523.141 525.398 523.117 525.256 523.139C525.115 523.16 524.989 523.226 524.908 523.323Z" fill="#263238"/>
<path d="M530.972 520.483C525.597 525.715 521.79 533.369 523.875 540.144C523.875 540.407 524.411 540.314 524.468 540.144C526.08 533.56 528.562 527.134 531.871 520.977C531.953 520.881 531.983 520.763 531.956 520.648C531.929 520.534 531.847 520.433 531.728 520.367C531.609 520.302 531.462 520.277 531.32 520.299C531.179 520.321 531.054 520.387 530.972 520.483Z" fill="#263238"/>
<path d="M537.017 517.705C531.642 522.937 527.835 530.592 529.92 537.366C530.016 537.629 530.475 537.536 530.532 537.366C532.137 530.783 534.613 524.357 537.916 518.199C537.998 518.103 538.028 517.985 538.001 517.87C537.974 517.756 537.892 517.655 537.773 517.59C537.654 517.524 537.507 517.499 537.365 517.521C537.224 517.543 537.098 517.609 537.017 517.705Z" fill="#263238"/>
<path d="M543.081 514.896C537.706 520.144 533.899 527.783 535.984 534.558C535.984 534.82 536.52 534.727 536.577 534.558C538.191 527.974 540.673 521.548 543.98 515.39C544.061 515.294 544.092 515.176 544.065 515.062C544.038 514.947 543.956 514.846 543.837 514.781C543.718 514.715 543.571 514.691 543.429 514.712C543.288 514.734 543.162 514.8 543.081 514.896Z" fill="#263238"/>
<path d="M491.469 578.371C485.558 584.328 497.036 591.751 502.947 585.779C508.858 579.806 497.381 572.414 491.469 578.371Z" fill="#263238"/>
<path d="M513.201 506.223C507.768 507.118 507.098 512.242 508.304 515.745C510.519 521.742 514.657 527.161 520.298 531.456C520.317 531.478 520.343 531.496 520.373 531.509C520.403 531.521 520.436 531.528 520.47 531.528C520.504 531.528 520.537 531.521 520.567 531.509C520.597 531.496 520.623 531.478 520.642 531.456C520.788 531.516 520.949 531.547 521.113 531.547C521.277 531.547 521.438 531.516 521.584 531.456C521.73 531.395 521.856 531.308 521.951 531.201C522.047 531.093 522.11 530.969 522.134 530.838C522.651 524.974 524.047 518.755 522.402 512.921C521.293 509.495 518.232 505.375 513.201 506.223ZM520.661 521.779C520.489 524.665 520.145 527.536 520.106 530.437C517.666 527.443 515.412 524.353 513.354 521.178C512.391 519.625 511.561 518.021 510.867 516.378C509.834 513.816 509.528 505.05 517.199 509.156C521.331 511.378 520.853 518.338 520.566 521.779H520.661Z" fill="#263238"/>
<path d="M509.509 546.209C514.98 542.166 518.098 536.348 521.752 531.255C521.823 531.137 521.859 531.007 521.855 530.875C521.85 530.744 521.807 530.615 521.728 530.5C521.65 530.385 521.537 530.287 521.402 530.214C521.266 530.141 521.11 530.096 520.948 530.082C520.952 530.054 520.947 530.025 520.934 529.998C520.922 529.972 520.902 529.948 520.876 529.928C520.85 529.909 520.819 529.895 520.785 529.887C520.751 529.878 520.715 529.877 520.68 529.882C513.017 530.878 505.817 533.492 499.81 537.459C496.367 539.805 493.363 544.358 497.228 547.552C501.092 550.747 506.314 548.571 509.509 546.209ZM502.584 546.981C493.363 546.904 499.714 539.789 502.354 538.138C504.074 537.086 505.883 536.132 507.768 535.283C511.594 533.477 515.764 532.197 519.82 530.653C517.907 533.061 516.128 535.592 514.253 538.061C512.034 541.009 507.653 547.012 502.584 546.981Z" fill="#263238"/>
<path d="M504.172 511.718L449.557 571.164L265.263 468.012L247.492 458.058C247.492 458.058 242.461 460.79 234.885 464.231C224.364 468.861 208.946 474.864 195.306 476.485C172.351 479.216 134.226 478.923 114.962 458.12C98.7212 440.604 109.816 408.874 109.816 408.874L136.598 406.482C136.598 406.482 192.073 369.089 230.677 367.901C247.032 367.376 270.849 377.376 292.905 387.824C314.961 398.272 504.172 511.718 504.172 511.718Z" fill="#455A64"/>
<path d="M247.492 458.043C247.492 458.043 242.461 460.774 234.885 464.216C221.495 451.283 193.145 427.795 192.284 426.961L247.492 458.043Z" fill="#263238"/>
<path d="M154.426 395.602C150.868 397.577 147.444 399.707 143.924 401.775C140.405 403.843 136.923 405.68 133.652 407.871C130.381 410.062 127.148 412.501 124.087 414.893C122.576 416.05 121.065 417.223 119.611 418.412C118.069 419.574 116.637 420.828 115.326 422.162C115.211 422.285 115.44 422.439 115.594 422.362C117.252 421.407 118.843 420.376 120.357 419.276C122.021 418.149 123.647 416.992 125.311 415.865C128.506 413.674 131.758 411.544 134.876 409.337C137.994 407.13 140.978 404.707 144.116 402.562C147.253 400.417 151.002 397.932 154.503 395.741C154.56 395.648 154.503 395.556 154.426 395.602Z" fill="#263238"/>
<path d="M491.355 509.588C487.797 512.674 484.526 515.992 481.216 519.249C477.907 522.505 474.597 525.807 471.326 529.11C464.784 535.7 458.165 542.274 451.738 548.941C448.199 552.614 444.717 556.302 441.427 560.114C441.391 560.151 441.375 560.198 441.383 560.244C441.39 560.29 441.419 560.333 441.465 560.361C441.511 560.39 441.569 560.403 441.626 560.397C441.683 560.391 441.736 560.367 441.771 560.33C448.83 554.08 455.162 547.413 461.8 540.823C468.438 534.234 474.884 527.582 481.293 520.9C484.813 517.242 488.447 513.6 491.68 509.773C491.692 509.739 491.691 509.703 491.677 509.669C491.662 509.636 491.635 509.607 491.599 509.587C491.564 509.566 491.521 509.555 491.477 509.556C491.433 509.556 491.39 509.567 491.355 509.588Z" fill="#263238"/>
<path d="M345.014 416.76C338.529 410.695 310.715 394.784 292.943 387.67C292.909 387.662 292.874 387.665 292.842 387.677C292.81 387.688 292.784 387.709 292.768 387.734C292.752 387.759 292.748 387.788 292.755 387.816C292.763 387.843 292.782 387.868 292.81 387.886C310.523 397.068 339.715 414.476 344.746 417.069C344.976 417.177 345.186 416.915 345.014 416.76Z" fill="#263238"/>
<path d="M268.152 253.405L273.068 261.43L284.029 262.711L276.09 268.962L277.965 277.774L268.152 273.607L258.357 277.774L260.213 268.962L252.274 262.711L263.254 261.43L268.152 253.405Z" fill="#2DA0B9"/>
<path d="M304.574 227.694L308.113 233.713L316.014 234.67L310.294 239.346L311.652 245.951L304.574 242.834L297.477 245.951L298.835 239.346L293.116 234.67L301.035 233.713L304.574 227.694Z" fill="#2DA0B9"/>
<path d="M276.263 190.162L278.501 193.82L283.494 194.406L279.878 197.246L280.739 201.274L276.263 199.376L271.786 201.274L272.647 197.246L269.032 194.406L274.024 193.82L276.263 190.162Z" fill="#2DA0B9"/>
<path d="M304.574 168.68L306.258 171.458L310.064 171.89L307.31 174.051L307.96 177.106L304.574 175.656L301.169 177.106L301.82 174.051L299.065 171.89L302.872 171.458L304.574 168.68Z" fill="#2DA0B9"/>
<path d="M676.375 463.058C676.375 463.058 720.373 455.033 744.362 437.147C768.35 419.26 781.875 387.207 781.875 387.207C765.189 389.783 748.738 393.269 732.635 397.639C728.695 401.034 721.158 408.025 717.734 414.615C717.317 410.575 717.279 406.515 717.619 402.47C711.989 404.45 706.723 407.047 701.971 410.186C682.019 424.23 676.375 463.058 676.375 463.058Z" fill="#2DA0B9"/>
<path d="M754.463 402.778C760.45 399.445 766.533 396.219 772.502 392.839C772.562 392.796 772.602 392.736 772.613 392.671C772.624 392.606 772.607 392.539 772.563 392.484C772.519 392.428 772.453 392.387 772.375 392.367C772.297 392.348 772.213 392.351 772.138 392.376C760.814 397.824 749.661 403.658 738.872 409.754C735.046 411.883 731.411 414.09 727.758 416.359L728.523 415.309C729.843 413.519 731.239 411.775 732.617 410.031C735.379 406.485 738.501 403.13 741.952 400C742.067 399.877 741.856 399.707 741.722 399.83C738.317 403.01 734.893 406.158 731.775 409.538C730.283 411.081 728.925 412.794 727.605 414.492C726.916 415.387 726.266 416.266 725.692 417.177L725.022 418.087C719.283 421.683 713.831 425.433 708.552 429.399C705.287 431.848 702.143 434.384 699.121 437.008C700.804 432.717 702.296 428.381 704.267 424.168C704.275 424.149 704.278 424.129 704.275 424.109C704.272 424.09 704.263 424.071 704.249 424.054C704.235 424.038 704.216 424.025 704.194 424.015C704.172 424.006 704.148 424.001 704.123 424.001C704.099 424.001 704.074 424.006 704.052 424.015C704.03 424.025 704.012 424.038 703.998 424.054C703.983 424.071 703.975 424.09 703.971 424.109C703.968 424.129 703.971 424.149 703.98 424.168C702.067 428.597 699.963 433.042 698.49 437.594C695.123 440.526 691.909 443.551 688.925 446.715C688.925 446.53 689.02 446.329 689.078 446.144C689.575 444.477 690.092 442.81 690.646 441.144C691.718 437.949 692.885 434.755 694.224 431.622C696.753 425.094 700.754 418.999 706.027 413.643C706.141 413.535 705.931 413.365 705.797 413.488C697.227 421.668 692.196 431.498 688.982 441.807C688.523 443.351 688.064 444.894 687.643 446.345C687.414 447.162 687.165 447.98 686.993 448.798C685.654 450.249 684.353 451.715 683.167 453.212C675.695 462.423 669.468 472.253 664.592 482.534C659.105 494.12 654.405 505.938 650.513 517.937C650.513 518.168 650.876 518.245 650.972 517.937C659.561 497.211 668.322 476.268 683.033 457.657C686.137 453.753 689.482 449.977 693.057 446.345C700.328 445.963 707.506 444.811 714.405 442.918C721.946 440.87 729.138 438.065 735.811 434.569C739.611 432.502 743.27 430.272 746.773 427.887C746.793 427.879 746.811 427.867 746.824 427.852C746.838 427.837 746.848 427.82 746.852 427.802C746.857 427.784 746.856 427.765 746.851 427.747C746.845 427.729 746.835 427.712 746.82 427.698C746.805 427.684 746.787 427.673 746.766 427.665C746.745 427.657 746.722 427.654 746.699 427.654C746.677 427.654 746.654 427.659 746.634 427.667C746.613 427.675 746.595 427.687 746.581 427.702C740.454 431.696 733.684 435.003 726.457 437.532C719.361 440.164 711.934 442.171 704.305 443.52C701.072 444.091 697.782 444.523 694.491 444.878C698.549 440.836 702.872 436.973 707.442 433.304C708.915 432.116 710.446 430.974 711.976 429.816C717.095 426.923 722.532 424.412 728.217 422.316C735.41 419.507 742.487 416.529 749.604 413.612C753.621 411.961 757.619 410.278 761.674 408.689C761.847 408.612 761.674 408.411 761.502 408.473C754.29 411.297 746.964 413.921 739.675 416.606C732.827 419.137 725.883 421.683 719.302 424.662L718.48 425.063C724.429 420.896 730.589 416.914 736.883 413.072C742.545 409.599 748.494 406.127 754.463 402.778Z" fill="#263238"/>
<path d="M751.956 421.05C748.379 422.3 744.744 423.427 741.225 424.754C737.705 426.081 734.128 427.733 730.684 429.384C730.658 429.4 730.64 429.423 730.634 429.449C730.628 429.475 730.633 429.502 730.65 429.524C730.666 429.547 730.692 429.564 730.723 429.572C730.754 429.581 730.788 429.58 730.818 429.569C734.319 428.211 737.877 426.946 741.339 425.541C744.802 424.137 748.398 422.563 752.052 421.282C752.32 421.22 752.128 420.989 751.956 421.05Z" fill="#263238"/>
<path d="M533.746 284.549C541.854 292.992 546.447 303.288 546.869 313.963C547.003 317.142 546.391 321.572 545.932 326.772C562.306 333.825 574.626 346.526 574.626 346.526C565.329 342.02 552.55 340.199 545.664 340.94C545.89 344.498 546.453 348.037 547.347 351.526C550.389 351.387 556.262 351.712 565.96 354.489C560.197 354.445 554.485 355.365 549.184 357.19C557.008 377.253 580.269 397.917 644.506 406.683C644.506 406.683 656.902 371.496 633.143 333.748C613.841 303.191 533.746 284.549 533.746 284.549Z" fill="#2DA0B9"/>
<path d="M666.716 492.704C665.606 484.124 664.19 475.559 662.545 467.04C659.302 449.959 654.98 433.022 649.595 416.297C647.084 408.437 643.986 400.706 640.317 393.148C640.505 391.77 640.588 390.383 640.565 388.997C640.565 387.345 640.565 385.679 640.565 384.027C640.565 380.694 640.336 377.391 639.992 374.073C639.333 367.52 638.009 361.022 636.032 354.644C634.865 350.955 633.487 347.313 632.206 343.656C632.189 343.629 632.161 343.609 632.127 343.598C632.094 343.587 632.056 343.586 632.021 343.595C631.987 343.604 631.957 343.623 631.939 343.649C631.92 343.674 631.913 343.704 631.919 343.733C634.04 350.083 635.612 356.544 636.625 363.07C637.785 369.515 638.506 376.006 638.786 382.515C638.786 384.305 638.901 386.08 638.92 387.87C638.92 388.626 638.92 389.413 638.92 390.154C635.723 383.97 632.069 377.945 627.978 372.113C621.451 362.848 614.099 353.976 605.979 345.569C605.96 344.588 605.787 343.613 605.463 342.668C605.157 341.51 604.851 340.353 604.525 339.195C603.856 336.834 603.129 334.473 602.326 332.143C600.738 327.513 598.634 322.883 596.797 318.253C596.786 318.23 596.767 318.209 596.741 318.195C596.715 318.181 596.685 318.173 596.654 318.173C596.622 318.173 596.592 318.181 596.566 318.195C596.541 318.209 596.521 318.23 596.51 318.253C598.213 322.883 599.341 327.606 600.642 332.282C601.293 334.581 601.924 336.911 602.555 339.211L603.473 342.683V342.946C600.923 340.312 598.27 337.709 595.515 335.137C583.234 323.531 569.786 312.821 556.262 302.188C554.597 300.876 552.876 299.611 551.192 298.314C551.058 298.206 550.848 298.314 550.982 298.5C563.933 309.302 576.673 320.399 588.724 331.927C591.594 334.674 594.463 337.436 597.199 340.245L592.818 337.899C588.992 335.924 585.281 334.01 581.34 332.251C577.4 330.491 573.516 328.763 569.518 327.158C565.52 325.553 560.987 324.18 557.027 322.312C556.855 322.235 556.702 322.467 556.874 322.528C560.936 324.038 564.856 325.786 568.6 327.76C572.426 329.627 576.405 331.51 580.25 333.485C584.095 335.461 587.902 337.313 591.575 339.288C594.693 340.924 597.773 342.714 601.025 344.227C608.475 351.946 615.348 360.016 621.608 368.394C625.495 373.671 629.045 379.106 632.244 384.676L629.929 383.858L624.152 381.836C620.326 380.478 616.5 379.166 612.789 377.823C605.578 375.308 598.251 372.978 591.192 370.2C587.228 368.69 583.393 366.968 579.714 365.045C579.561 364.953 579.408 365.169 579.561 365.246C592.742 372.576 607.51 377.731 622.086 382.947L628.418 385.2C630.159 385.818 631.881 386.512 633.679 387.052C637.996 394.84 641.627 402.865 644.544 411.065C650.311 427.569 654.998 444.306 658.585 461.206C662.258 478.182 664.745 495.158 666.677 512.304C666.926 514.433 667.156 516.563 667.462 518.693C667.492 518.853 667.592 519 667.745 519.106C667.898 519.212 668.092 519.27 668.294 519.27C668.495 519.27 668.69 519.212 668.842 519.106C668.995 519 669.096 518.853 669.126 518.693C668.935 509.973 667.844 501.269 666.716 492.704Z" fill="#263238"/>
<path d="M627.634 349.505C626.448 344.242 624.707 339.087 622.947 333.933C622.947 333.779 622.622 333.84 622.66 333.933C624.286 338.995 625.453 344.165 626.639 349.366C627.825 354.566 628.896 359.86 629.814 365.138C629.814 365.23 630.006 365.23 629.986 365.138C629.567 359.895 628.781 354.676 627.634 349.505Z" fill="#263238"/>
<path d="M599.934 363.795C595.466 361.424 590.8 359.305 585.97 357.452C583.636 356.48 581.264 355.554 578.892 354.628C576.52 353.702 573.899 352.869 571.469 351.881C571.435 351.874 571.4 351.877 571.368 351.888C571.336 351.9 571.31 351.92 571.294 351.946C571.278 351.971 571.274 352 571.281 352.027C571.289 352.055 571.308 352.08 571.336 352.097C573.669 353.054 575.907 354.196 578.222 355.184L585.338 358.27C590.044 360.308 594.654 362.561 599.59 364.212C599.652 364.214 599.714 364.203 599.77 364.18C599.825 364.157 599.872 364.124 599.907 364.082C599.942 364.04 599.962 363.992 599.967 363.941C599.972 363.891 599.96 363.841 599.934 363.795Z" fill="#263238"/>
<path opacity="0.1" d="M677.179 401.652C677.179 401.652 717.81 393.827 736.48 371.836C754.309 350.832 760.067 315.044 760.526 311.895C759.78 314.781 751.402 346.063 723.74 360.632C702.583 371.851 682.076 381.034 677.179 401.652Z" fill="#263238"/>
<path d="M714.692 345.06C707.463 350.42 702.263 357.322 699.695 364.968C699.695 364.968 699.81 365.076 699.829 364.968C702.817 357.507 707.98 350.733 714.884 345.214C715.018 345.137 714.826 344.952 714.692 345.06Z" fill="#263238"/>
<path d="M677.179 401.652C677.179 401.652 717.81 393.827 736.481 371.836C754.309 350.832 760.067 315.044 760.527 311.895C760.535 311.818 760.535 311.741 760.527 311.664C760.527 311.664 741.053 334.01 720.565 339.72C700.077 345.43 671.306 365.169 677.179 401.652Z" fill="#2DA0B9"/>
<path d="M753.353 324.041C749.725 330.061 745.543 335.854 740.842 341.372C736.103 346.61 730.475 351.286 724.123 355.261C718.614 358.795 712.779 362.005 707.193 365.462L707.308 365.308C708.36 364.042 709.489 362.823 710.637 361.635C712.971 359.243 715.515 357.005 718.078 354.736C723.128 350.322 728.274 345.986 732.808 341.202C735.314 338.556 737.492 335.718 739.312 332.729C739.408 332.59 739.121 332.513 739.025 332.652C732.444 343.733 719.283 350.816 709.891 360.168C708.552 361.511 707.289 362.885 706.065 364.32C705.139 365.376 704.357 366.509 703.731 367.7C698.587 371.019 693.939 374.81 689.881 378.996C690.23 376.848 690.773 374.723 691.507 372.638C692.456 369.722 693.905 366.928 695.811 364.335C695.907 364.196 695.658 364.073 695.563 364.196C693.594 366.793 692.002 369.563 690.819 372.453C689.96 374.749 689.466 377.124 689.346 379.521C687.337 381.719 685.503 384.018 683.855 386.404C684.028 385.71 684.181 385 684.353 384.305C685.156 381.033 686.055 377.777 687.107 374.567C689.008 367.983 692.316 361.716 696.883 356.048C696.997 355.925 696.749 355.786 696.634 355.909C691.969 361.483 688.323 367.569 685.807 373.981C684.506 377.191 683.473 380.462 682.555 383.765C682.115 385.385 681.713 387.006 681.33 388.626C681.12 389.46 680.909 390.324 680.737 391.188C676.702 398.325 673.561 405.77 671.364 413.411C667.368 427.058 664.473 440.899 662.698 454.848C660.594 469.461 659.655 484.167 659.886 498.877C659.886 500.714 660.058 502.566 660.173 504.402C660.173 504.881 661.091 504.942 661.11 504.402C661.512 497.118 661.742 489.849 662.277 482.58C662.813 475.312 663.597 468.043 664.573 460.805C666.42 446.564 669.243 432.416 673.028 418.427C676.337 406.436 680.68 394.367 688.714 383.873C692.749 378.646 697.69 373.912 703.387 369.814C709.126 365.678 715.304 362.098 721.311 358.255C727.382 354.522 732.901 350.24 737.762 345.492C742.733 340.178 747.063 334.494 750.694 328.516C751.65 326.973 752.607 325.568 753.602 324.087C753.678 324.041 753.43 323.902 753.353 324.041Z" fill="#263238"/>
<path d="M746.332 328.84C743.673 333.258 740.65 337.527 737.284 341.619C737.284 341.711 737.38 341.804 737.475 341.711C740.96 337.66 744.019 333.38 746.619 328.917C746.696 328.779 746.409 328.701 746.332 328.84Z" fill="#263238"/>
<path d="M528.083 387.207C528.083 387.207 527.433 433.782 561.962 447.24C596.491 460.697 614.989 449.477 638.48 453.984C637.581 452.873 620.842 433.443 594.214 428.103C566.763 422.578 536.386 406.621 528.083 387.207Z" fill="#2DA0B9"/>
<path opacity="0.1" d="M528.083 387.207C528.083 387.207 527.433 433.782 561.962 447.24C596.491 460.697 614.989 449.477 638.48 453.984C626.094 449.219 612.852 446.062 599.245 444.632C577.399 442.502 535.793 431.066 528.083 387.207Z" fill="#263238"/>
<path d="M640.718 454.817C636.615 451.8 631.996 449.274 627.003 447.317C626.256 447.024 625.491 446.792 624.745 446.53C624.382 446.159 623.98 445.805 623.578 445.465C622.545 444.601 621.474 443.767 620.326 442.98C618.169 441.465 615.844 440.112 613.382 438.937C607.643 436.221 601.407 434.307 595.554 431.807C595.381 431.73 595.228 431.946 595.401 432.008C598.289 433.227 601.139 434.554 603.913 435.881C606.687 437.208 609.442 438.397 612.101 439.786C614.497 441.031 616.779 442.413 618.93 443.922C619.542 444.354 620.135 444.817 620.709 445.295C616.895 444.248 612.996 443.412 609.04 442.795C602.727 441.761 596.338 441.036 590.025 439.94C586.929 439.409 583.87 438.744 580.862 437.949C577.993 436.082 575.123 434.245 572.426 432.224C569.143 429.797 566.152 427.126 563.492 424.245C563.378 424.106 563.129 424.245 563.244 424.369C567.434 428.934 572.176 433.153 577.4 436.962C575.908 436.509 574.435 435.994 572.981 435.418C561.126 431.127 550.952 424.301 543.56 415.68C543.464 415.556 543.196 415.68 543.311 415.803C549.574 423.236 557.676 429.541 567.108 434.323C571.833 436.692 576.877 438.618 582.144 440.064C588.267 441.591 594.511 442.782 600.833 443.628C607.032 444.44 613.15 445.61 619.14 447.132C624.63 448.648 629.793 450.845 634.444 453.644C643.233 459.155 650.313 466.24 655.123 474.339C661.665 484.911 664.783 496.732 666.601 508.399C666.601 508.893 667.634 508.893 667.576 508.399C665.931 488.784 659.446 468.413 640.718 454.817Z" fill="#263238"/>
<path d="M600.661 439.631C598.859 437.455 596.422 435.669 593.564 434.431C590.286 433.06 587.41 431.139 585.128 428.798C585.013 428.674 584.745 428.798 584.86 428.921C586.934 431.057 589.46 432.88 592.321 434.307C595.459 435.648 598.226 437.491 600.451 439.724C600.546 439.832 600.757 439.739 600.661 439.631Z" fill="#263238"/>
<path d="M618.987 489.201L620.556 514.804L625.357 593.078H697.801L702.602 514.804L704.171 489.201H618.987Z" fill="#37474F"/>
<path d="M618.987 489.201L620.556 514.804H702.602L704.171 489.201H618.987Z" fill="#263238"/>
<path d="M613.899 502.936H709.259V478.506H613.899V502.936Z" fill="#37474F"/>
</svg>
